<svg width="869" height="721" xmlns="http://www.w3.org/2000/svg"><g fill="none" fill-rule="evenodd"><path d="M832.004 172.381c-.534-.388-1.8-.525-2.388-.641-2.447-.483-4.968-.693-7.463-.693-7.693.012-15.511.767-23.077 2.074-4.803.83-10.61 3.622-15.388 2.105-8.325-2.642-16.738-2.512-24.636 1.26-7.22 3.45-12.702 10-15.9 17.078-.483 1.069-2.441 5.002-2.996 7.653a31.015 31.015 0 0 0-.67 1.641 82.967 82.967 0 0 0-1.59 4.777c-.207.684-.729 2.194-.11 2.486a45.46 45.46 0 0 0-2.597 5.652c-2.125 5.652-4.448 11.852-5.195 17.842a27.912 27.912 0 0 0-.03 6.671c.127 1.099.074 3.307.819 4.143 1.58 1.772 2.392-.71 2.213-1.89-1.36-9.007 1.267-17.465 4.38-25.93 2.014-5.475 5.322-10.484 9.028-15.02 3-3.67 6.216-6.562 10.328-8.996 5.027-2.977 10.402-5.383 15.728-7.797 3.502-1.588 7.01-3.134 10.61-4.502.8-.305 2.06-1.085 2.948-1.089 1.877-.006 4.537 1.379 6.35 1.894 5.964 1.696 12.005 3.867 18.169 4.733 3.953.556 7.657-.07 11.355-1.387.378-.134 1.011-.48 1.787-.974 2.745-1.056 5.342-2.385 7.603-4.302 1.303-1.105 2.485-2.533 3.563-3.84a2.01 2.01 0 0 0 .47-1.264c.244-.127.406-.276.443-.45.269-1.287-2.184-1.31-3.754-1.234" fill="#89C5CC"/><path d="M66.773 292.46c-1.51 1.222-2.99 2.47-4.434 3.77-1.1.99-3.048 2.175-3.443 3.675-.411 1.558.886 3.017 1.91 3.96 5.417 4.983 11.517 8.353 19.023 8.913 11.558.863 21.616-2.088 31.644-7.896 7.044-4.08 11.71-10.114 12.73-18.262 8.388 3.487 16.502 8.292 23.397 14.19 3.402 2.91 6.332 6.135 9.042 9.709 1.736 2.29 3.415 4.616 4.973 7.031.677 1.05 1.366 2.911 2.484 3.516 1.313.71 2.9-.403 2.834-1.863-.054-1.215-1.366-2.624-1.979-3.617a135.144 135.144 0 0 0-3.141-4.89c-1.762-2.597-3.583-5.157-5.57-7.587-4.463-5.46-10.142-9.969-16.029-13.815-11.294-7.378-23.689-12.026-37.431-12.42-8.45-.242-15.558 2.645-22.784 6.957-4.5 2.684-9.143 5.323-13.226 8.629" fill="#DDE3E9"/><path d="M172.247 240.989c-8.805-9.068-17.641-18.024-27.48-26.01-5.797-4.704-11.908-8.983-17.892-13.445.69.605 1.368 1.228 2.028 1.865-1.867-1.268-4.313-1.985-6.293-3.158-2.21-1.31-4.32-2.807-6.392-4.317-4.043-2.945-8.025-5.947-12.18-8.74-4.63-3.11-9.43-5.985-14.138-8.978-3.997-2.54-8.042-5.321-12.317-7.398-2.33-1.132-4.666-2.474-7.006-3.655-.783-.395-8.729-5.412-8.709-5.427.44-.331 4.438 1.548 5.056 1.8 1.807.738 3.534 1.62 5.27 2.5-.953-1.88-1.707-3.855-2.118-5.934-.127-.642-1.143-5.314-.623-5.706.26-.196 2.795 8.163 2.924 8.967.106.653.09 1.593.304 2.21.345 1 .328.698 1.088 1.26 1.393 1.031 3.242 1.675 4.75 2.537.813.454 3.33 2.254 4.846 2.767 4.587 2.228 9.237 5.656 13.596 8.502a32.055 32.055 0 0 1-2.65-6.754c-.15-.56-1.78-5.577-1.384-5.875.445-.335 3.549 7.328 3.733 8.054.341 1.347.412 2.847.84 4.158.47 1.44 1.934 1.95 3.254 2.788 4.858 3.086 9.548 6.366 14.16 9.795 5.033-8.95-.77-19.759-5.66-27.269-3.525-5.412-8.271-10.053-13.282-14.104-6.688-5.406-14.339-9.726-21.98-13.676-8.905-4.604-18.53-7.456-28.535-8.774-5.233-.69-10.586-.67-15.872-.449-2.582.108-5.06.45-7.535 1.292-1.115.38-2.193.859-3.244 1.395-.798.408-2.728.838-3.187 1.445-3.778 4.916-5.71 9.815-5.415 15.993.28 5.848 2.126 11.7 4.633 16.916 2.791 5.809 6.381 11.081 11.077 15.506 3.582 3.376 7.587 6.314 11.566 9.213 14.151 10.314 32.092 19.283 50.42 16.979 5.933-.746 11.576-2.82 16.85-5.64 1.242-.664 2.477-1.336 3.65-2.121.791-.529 2.905-2.912 3.7-2.998 1.09-.119 3.44 2.099 4.462 2.774 7.774 5.132 15.344 10.541 22.756 16.17 7.885 5.988 15.383 12.383 22.66 19.08 3.096 2.848 6.172 5.703 9.178 8.647.7.684 2.41 3.207 3.679 3.32.802.073 1.343-.612 1.229-1.354-.2-1.291-2.915-3.223-3.817-4.151" fill="#C1DEE2"/><path d="M822.23 218.672c-3.412-.746-7.178-.689-10.652-.627-18.634.253-36.932 9.075-48.84 23.171-10.138 12-12.926 26.92-14.929 42.003-.198 1.497-.284 2.985-.396 4.486-.024.322-.06.609-.098.88-.788.704-1.2 1.524-.735 2.426-1.735 3.798-3.203 7.691-4.462 11.707-3.707 11.82-7.478 23.864-5.155 36.294.543-6.84 1.684-13.834 3.05-20.562.078-.386.163-.77.251-1.151l.027-.12a44.965 44.965 0 0 1 1.875-6.027l.024-.063c.101-.26.208-.517.314-.774.219-.533.443-1.065.682-1.595.08-.18.158-.362.232-.545 1.112-2.726 1.582-5.798 2.578-8.618a60.683 60.683 0 0 1 .796-2.028c.705-1.71 1.485-3.4 2.31-5.071.447-.337.687-1.172 1.073-1.931.08-.15.705-1.147.89-1.722.486-.94.97-1.879 1.459-2.816l-.044.016 1.467-2.689.323-.59.524-.937a176.938 176.938 0 0 1 5.16-8.61c.641-1.01 2.174-2.456 2.468-3.589.01-.042.013-.08.02-.122 3.9-5.477 8.39-10.529 13.773-14.532-.65.703-2.034 3.09-2.4 3.563-1.119 1.448-2.334 2.795-3.554 4.159-2.184 2.442-4.317 4.963-6.212 7.628-3.465 4.874-6.455 10.003-9.28 15.235-.028.031-.057.06-.083.092-1.42 1.75-2.314 4.397-3.337 6.4 4.047-1.874 8.521-3.095 12.674-4.76 4.141-1.659 8.17-3.506 12.06-5.676 5.169-2.883 10.531-6.138 15.416-9.823 5.597-3.472 10.3-8.25 14.453-13.265 4.912-5.934 9.414-11.92 12.198-19.124 1.368-3.54 2.443-7.232 3.081-10.967.028-.163.064-.34.103-.523a35.926 35.926 0 0 0 1.725-3.958c.778-2.14 2.614-4.493-.83-5.245" fill="#69A1AC"/><path d="M100.526 239.219c-1.068-1.157-2.268-2.2-3.677-2.945-.357-.188-3.01-1.45-3.183-1.173-.403.645 6.54 3.749 6.86 4.118m12.582-7.729c-.01.05.911 1.61 1.161 2.09a54.377 54.377 0 0 1 1.49 3.104c-.687-1.841-1.391-3.549-2.651-5.194M48.763 244.2c-.886.285-1.952-.84-.802-1.117.93-.223.884-.275 1.302-1.024.339-.609.548-1.35.845-1.989.632-1.354 1.348-2.645 2.227-3.856 1.883-2.593 4.178-4.829 6.752-6.712 4.492-3.287 9.529-6.291 14.872-7.8 8.495-2.4 18.163-2.549 26.672-.885 5.27 1.03 10.085 2.822 13.584 7.065 1.75 2.12 3.122 4.604 3.722 7.34.157.715.127 1.51.323 2.21.302 1.076.169.79 1.428.999 1.374.228 2.747.462 4.12.699 3.595.622 7.21 1.282 10.714 2.291 1.153.332 2.28.738 3.381 1.21.833.356 4.15 1.474 4.554 2.556.67 1.801-1.577.985-2.276.593a27 27 0 0 0-1.878-.96c-1.604-.742-3.276-1.317-4.986-1.774-1.848-.494-3.734-.863-5.612-1.233-1.751-.344-3.51-.657-5.27-.956-.978-.167-1.957-.328-2.935-.49-.335-.055-.925-.345-.88.09-2.058-.397-4.283-.34-6.38-.449-2.567-.134-5.143-.244-7.72-.163-1.857.058-3.717.18-5.565.43-1.08.145-2.143.359-3.203.629-.582.148-2.877.463-3.194.97.136-.217 2.67-.006 2.992-.018 1.29-.049 2.57-.177 3.854-.32a59.868 59.868 0 0 1 7.162-.385c-.01.42-1.643 1.167-2.042 1.446a23.047 23.047 0 0 0-2.55 2.051c-1.407 1.315-3.093 2.945-4.067 4.503.287-.46 1.703-1.057 2.205-1.408a29.577 29.577 0 0 0 2.34-1.803 29.638 29.638 0 0 0 1.963-1.885c.632-.653 1.49-2.012 2.32-2.447.05-.026.412.26.617.162.207-.098.466-.587.518-.607.773-.299 2.241.072 3.054.11 2.107.097 4.212.224 6.318.34.653.036 1.207-.113 1.453.369.263.513-.218 1.862-.355 2.42-.508 2.077-1.41 3.939-2.83 5.547-2.658 3.013-5.936 5.021-9.639 6.365-14.184 5.146-29.275 7.207-43.455 1.854-5.87-2.217-14.712-6.177-13.653-13.969" fill="#89C5CC"/><path d="M858.305 526.19c12.206 76.082-283.803 125.709-538.584 91.076C64.94 582.633-51.942 447.386 69.636 375.322c121.577-72.064 776.463 74.784 788.669 150.867z" opacity=".6" fill="#DDE3E9"/><g transform="translate(167.608 52.388)"><rect fill="#F2F2F2" width="159" height="302" rx="8"/><circle fill="#FFF" cx="79" cy="268" r="15"/><g transform="translate(64 16)" fill="#FFF"><circle cx="2" cy="2" r="2"/><rect x="9" width="21" height="4" rx="2"/></g><g transform="translate(14 28)"><rect fill="#FFF" width="131" height="54" rx="4"/><g transform="translate(39 16.2)" fill="#DDE3E9"><rect width="73" height="8.1" rx="3"/><rect y="13.5" width="49" height="8.1" rx="3"/></g><circle fill="#C5CFD6" cx="21" cy="27" r="12"/></g><g transform="translate(14 90)"><rect fill="#FFF" width="131" height="42" rx="4"/><g transform="translate(39 12.6)" fill="#DDE3E9"><rect width="73" height="6.3" rx="3"/><rect y="10.5" width="49" height="6.3" rx="3"/></g><circle fill="#C5CFD6" cx="21" cy="21" r="12"/></g><g transform="translate(14 140)"><rect fill="#FFF" width="131" height="42" rx="4"/><g transform="translate(39 12.6)" fill="#DDE3E9"><rect width="73" height="6.3" rx="3"/><rect y="10.5" width="49" height="6.3" rx="3"/></g><circle fill="#AFB9C5" cx="21" cy="21" r="12"/></g><g transform="translate(14 190)"><rect fill="#FFF" width="131" height="42" rx="4"/><g transform="translate(39 12.6)" fill="#DDE3E9"><rect width="73" height="6.3" rx="3"/><rect y="10.5" width="49" height="6.3" rx="3"/></g><circle fill="#C5CFD6" cx="21" cy="21" r="12"/></g></g><g transform="translate(196.732 82.67)"><g fill="#89C5CC"><path d="M12.14 218c-1.325 0-2.646.027-3.969.095-1.009.053-2.55-.156-3.403.473-.887.653-.826 1.99-.687 2.933.732 4.992 2.52 9.418 6.258 12.955 5.757 5.445 12.356 8.212 20.165 9.444 5.486.866 10.55-.336 14.588-4.237 2.95 5.476 5.189 11.536 6.312 17.652.554 3.018.723 6 .626 9.073-.063 1.968-.171 3.932-.382 5.89-.092.852-.526 2.14-.193 2.945.391.944 1.71 1.036 2.302.23.493-.67.403-1.987.504-2.78.168-1.318.323-2.637.434-3.96.18-2.144.314-4.293.304-6.445-.022-4.833-1.097-9.685-2.567-14.273-2.82-8.803-7.395-16.626-14.511-22.764-4.376-3.774-9.384-5.302-15.065-6.123-3.538-.51-7.133-1.108-10.716-1.108"/><path d="M32.571 253c-14.299 0-23.929 11.524-28.482 23.502-1.717 4.514-2.12 9.472-2.78 14.212-.213 1.522-.134 3.84-.752 5.195-.224.492-.738.668-.492 1.338.149.405.44.654.879.734.899.166 2.17-.814 2.942-1.2 6.396-3.208 10.598-8.168 14.026-14.236 2.126-3.761 4.282-7.666 5.544-11.795.771-2.523 1.22-5.18 1.484-7.796.104-1.03.204-2.086.198-3.122-.006-1.03-.485-1.573-.829-2.468 4.771-1.806 10.157-2.298 14.99-.427 4.47 1.731 8.183 5.076 10.262 9.279.54 1.092.957 2.244 1.26 3.42.199.77.208 1.768.577 2.464.892 1.688 2.77.56 2.59-1.011-.503-4.381-3.01-8.78-6.213-11.826-4.04-3.842-9.517-6.263-15.204-6.263"/></g><rect fill="#DDE3E9" x="48" width="159" height="302" rx="8"/><circle fill="#FFF" cx="127" cy="268" r="15"/><g transform="translate(112 16)" fill="#FFF"><circle cx="2" cy="2" r="2"/><rect x="9" width="21" height="4" rx="2"/></g><g transform="translate(62 28)"><rect fill="#FFF" width="131" height="54" rx="4"/><g transform="translate(9 16.2)" fill="#DDE3E9"><rect width="73" height="8.1" rx="3"/><rect y="13.5" width="49" height="8.1" rx="3"/></g><g transform="translate(110 20)"><circle fill="#DDE3E9" cx="7" cy="7" r="7"/><circle fill="#F2F2F2" cx="7" cy="7" r="3"/></g></g><g transform="translate(62 90)"><rect fill="#FFF" width="131" height="42" rx="4"/><g transform="translate(39 12.6)" fill="#DDE3E9"><rect width="73" height="6.3" rx="3"/><rect y="10.5" width="49" height="6.3" rx="3"/></g><circle fill="#C5CFD6" cx="21" cy="21" r="12"/></g><g transform="translate(62 140)"><rect fill="#FFF" width="131" height="42" rx="4"/><g transform="translate(9 12.6)"><rect fill="#DDE3E9" width="73" height="6.3" rx="3"/><rect fill="#AFB9C5" y="10.5" width="49" height="6.3" rx="3"/></g><g transform="translate(110 14)"><circle fill="#DDE3E9" cx="7" cy="7" r="7"/><circle fill="#F2F2F2" cx="7" cy="7" r="3"/></g></g><g transform="translate(62 190)"><rect fill="#FFF" width="131" height="42" rx="4"/><g transform="translate(39 12.6)" fill="#DDE3E9"><rect width="73" height="6.3" rx="3"/><rect y="10.5" width="49" height="6.3" rx="3"/></g><circle fill="#C5CFD6" cx="21" cy="21" r="12"/></g></g><g transform="translate(357.878 115.412)"><rect fill="#F2F2F2" width="335" height="346" rx="8"/><rect fill="#FFF" x="249" y="43" width="70" height="81" rx="8"/><g transform="translate(259 58)" fill="#DDE3E9"><circle cx="25" cy="16" r="16"/><rect y="36" width="50" height="6" rx="3"/><rect x="8" y="46" width="34" height="6" rx="3"/></g><path d="M8 0h319a8 8 0 0 1 8 8v19H0V8a8 8 0 0 1 8-8z" fill="#C5CFD6"/><g transform="translate(9 10)" fill="#F2F2F2"><circle cx="4" cy="4" r="4"/><circle cx="16" cy="4" r="4"/><circle cx="28" cy="4" r="4"/></g><g transform="translate(249 132)"><rect fill="#FFF" width="70" height="194" rx="8"/><g transform="translate(18 18)"><rect fill="#DDE3E9" width="34" height="26" rx="4"/><rect fill="#AFB9C5" y="34" width="34" height="25" rx="4"/><rect fill="#DDE3E9" y="67" width="34" height="25" rx="4"/><rect fill="#DDE3E9" y="133" width="34" height="25" rx="4"/><rect fill="#C5CFD6" y="100" width="34" height="25" rx="4"/></g></g><g transform="translate(16 44)"><rect fill="#FFF" width="225" height="47" rx="4"/><g transform="translate(9 14.1)" fill="#DDE3E9"><rect width="167" height="7.05" rx="3"/><rect y="11.75" width="112.096" height="7.05" rx="3"/></g><g transform="translate(193.954 16.5)"><circle fill="#DDE3E9" cx="7" cy="7" r="7"/><circle fill="#F2F2F2" cx="7" cy="7" r="3"/></g></g><g transform="translate(16 99)"><rect fill="#FFF" width="225" height="39" rx="4"/><g transform="translate(9 11.7)" fill="#DDE3E9"><rect width="167" height="5.85" rx="2.925"/><rect y="9.75" width="112.096" height="5.85" rx="2.925"/></g><g transform="translate(193.954 12.5)"><circle fill="#DDE3E9" cx="7" cy="7" r="7"/><circle fill="#F2F2F2" cx="7" cy="7" r="3"/></g></g><g transform="translate(16 146)"><rect fill="#FFF" width="225" height="39" rx="4"/><g transform="translate(9 11.7)" fill="#DDE3E9"><rect width="167" height="5.85" rx="2.925"/><rect y="9.75" width="112.096" height="5.85" rx="2.925"/></g><g transform="translate(193.954 12.5)"><circle fill="#DDE3E9" cx="7" cy="7" r="7"/><circle fill="#AFB9C5" cx="7" cy="7" r="3"/></g></g><g transform="translate(16 287)"><rect fill="#FFF" width="225" height="39" rx="4"/><g transform="translate(9 11.7)" fill="#DDE3E9"><rect width="167" height="5.85" rx="2.925"/><rect y="9.75" width="112.096" height="5.85" rx="2.925"/></g><g transform="translate(193.954 12.5)"><circle fill="#DDE3E9" cx="7" cy="7" r="7"/><circle fill="#F2F2F2" cx="7" cy="7" r="3"/></g></g><g transform="translate(16 240)"><rect fill="#FFF" width="225" height="39" rx="4"/><g transform="translate(9 11.7)" fill="#DDE3E9"><rect width="167" height="5.85" rx="2.925"/><rect y="9.75" width="112.096" height="5.85" rx="2.925"/></g><g transform="translate(193.954 12.5)"><circle fill="#DDE3E9" cx="7" cy="7" r="7"/><circle fill="#F2F2F2" cx="7" cy="7" r="3"/></g></g><g transform="translate(16 193)"><rect fill="#FFF" width="225" height="39" rx="4"/><g transform="translate(9 11.7)" fill="#DDE3E9"><rect width="167" height="5.85" rx="2.925"/><rect y="9.75" width="112.096" height="5.85" rx="2.925"/></g><g transform="translate(193.954 12.5)"><circle fill="#DDE3E9" cx="7" cy="7" r="7"/><circle fill="#F2F2F2" cx="7" cy="7" r="3"/></g></g></g><path d="M825.526 302.917c-3.944-2.675-9.19-3.376-13.91-3.376-18.435 0-35.764 6.84-50.734 17.032-8.203 5.585-15.541 12.696-22.02 20.1-3.74 4.275-7.073 8.899-9.434 14.041-1.593 3.471-2.686 7.088-3.427 10.818-.904 4.546-1.621 9.184-1.946 13.806-.127 1.82-1.185 11.477 1.841 11.641a4.177 4.177 0 0 0-.003.668c-6.57 10.274-10.63 22.314-14.394 33.73-3.276 9.933-6.194 19.95-8.089 30.227a329.391 329.391 0 0 0-4.911 40.987c-.168 2.95-.283 5.9-.382 8.854l-.251 7.557c-.092 2.823-.59 6.073-.14 8.88.39 2.444 2.506 2.074 2.6-.359.112-2.937.094-5.88.222-8.82.171-3.9.347-7.801.538-11.701 1.33-27.092 6.315-53.786 15.516-79.377 3.723-10.356 7.99-20.16 13.474-29.74 4.82-8.422 10.62-16.576 16.548-24.171 5.762-7.38 11.752-14.59 18.812-20.843 5.729-5.074 12.03-9.494 18.508-13.608 8.228-5.224 16.44-10.32 25.352-14.33 4.632-2.085 9.352-3.951 14.021-5.951.84-.36 1.74-.71 2.549-1.126 2.695-1.39 1.808-3.483-.34-4.94" fill="#C1DEE2"/><path d="M750.299 400.506c7.477 0 14.13.971 21.02 3.943 5.947 2.565 11.367 5.96 16.629 9.656 7.402 5.199 13.231 11.25 17.312 19.266 2.438 4.79 4.227 11.566 2.59 16.79-1.93 6.152-7.225 11.284-14.2 10.2-4.312-.67-8.266-3.525-11.544-6.212-3.922-3.215-7.06-7.08-9.652-11.373-4.229-7.003-6.713-14.92-10.305-22.237-1.704-3.473-3.351-6.97-5.392-10.271-1.011-1.635-2.087-3.253-3.62-4.468-.82-.65-4.278-1.774-2.956-3.233-19.39.254-36.568 15.146-40.29 33.58-.347 1.718-.618 3.45-.904 5.178-.181 1.092-.108 5.117-1.084 5.815-2.152 1.538-1.247-3.135-1.155-3.808.239-1.739.493-3.476.76-5.21 1.454-9.435 5.654-18.205 12.658-24.933 8.01-7.693 18.816-12.683 30.133-12.683" fill="#89C5CC"/><path d="M46.938 419.736c18.666 31.316 40.407 61.638 53.463 95.877a503.705 503.705 0 0 0-1.709-12.093c-3.312-21.341-7.43-42.526-11.756-63.685-2.203-10.773-4.534-21.508-6.924-32.24-1.285-5.766-2.555-11.534-3.867-17.293-.318-1.396-.59-3.833-.988-6.302 12.688 41.637 24.924 83.305 33.874 125.942a279.132 279.132 0 0 1 2.993 16.758c.28-1.272.556-2.544.857-3.813 3.622-15.207 9.054-30.293 15.522-44.513 3.092-6.8 6.643-13.45 10.825-19.648 2.608-3.863 8.758-8.455 11.136-12.412-13.01 23.862-17.707 53.718-25.219 79.66-1.833 6.33-3.678 12.65-5.486 18.981 11.328-22.718 28.904-41.384 53.341-49.472-29.58 19.544-47.322 53.771-59.278 88.777-.04.415-.086.83-.127 1.246 3.519-6.677 7.95-12.717 13.956-16.946 12.856-9.056 27.116-6.418 39.586 1.35-9.787-6.221-27.474-.556-35.709 5.767-5.895 4.526-10.933 10.598-15.308 16.523-1.048 1.42-2.479 3.077-3.99 4.844A218.406 218.406 0 0 1 101.672 638c.807-3.889.224-10.108.448-13.007.024-.314.044-.628.068-.94a877.209 877.209 0 0 0-2.152 8.784c1.374-5.506 2.12-11.254 2.703-17.06.15-2.496.297-4.992.451-7.487-.049-4.737-.244-9.491-.574-14.254-1.17-4.628-2.48-8.994-3.56-12.625-3.897-13.1-9.612-25.651-16.645-37.36-6.417-10.685-14.099-20.363-22.966-29.116-4.78-4.718-9.784-9.21-14.716-13.765-1.784-1.647-4.972-5.696-7.729-7.807 20.08 11.07 40.749 23.047 55.398 40.885a444.574 444.574 0 0 0-5.556-19.468c-10.01-32.326-22.65-65.827-39.904-95.044z" fill="#DDE3E9"/><path d="M67 597c0 35.899 2.843 65 41 65s41-29.101 41-65" fill="#C5CFD6"/><g transform="translate(637.94 4.259)"><rect fill="#DDE3E9" y="32" width="6" height="25" rx="3"/><rect fill="#DDE3E9" x="14" y="16" width="6" height="41" rx="3"/><rect fill="#DDE3E9" x="28" y="8" width="6" height="49" rx="3"/><rect fill="#DDE3E9" x="42" y="16" width="6" height="41" rx="3"/><rect fill="#C5CFD6" x="56" width="6" height="57" rx="3"/></g><path d="M12.714 356.221c0-11.139 9.002-20.256 20-20.256v20.256l-13.668 14.744c-3.888-3.605-6.332-8.893-6.332-14.744z" fill="#F2F2F2"/><path d="M32.184 355.965h20.198c0 5.22-2.13 10.113-5.497 13.668-3.703 3.888-8.977 6.332-14.7 6.332-5.273 0-10.1-2.11-13.803-5.443l13.802-14.557z" fill="#AFB9C5"/><path d="M52.714 355.965c0-10.998-9.002-20-20-20v20h20zm-30-20l8 18-18-8c1.78-4.666 5.777-8.22 10-10z" fill="#C5CFD6"/><path d="M828.49 365.473a10.507 10.507 0 0 1-7.67 3.321c-5.818 0-10.534-4.7-10.534-10.5 0-5.799 4.716-10.5 10.534-10.5v-19.5c-16.55 0-30.096 13.503-30.096 30s13.546 30 30.096 30c8.693 0 16.549-3.666 21.904-9.498l-14.233-13.323z" fill="#F2F2F2"/><path d="M820.724 328.294v19.5c5.8 0 10.5 4.701 10.5 10.5h19.5c0-16.497-13.503-30-30-30z" fill="#AFB9C5"/><path d="M830.821 358.294c0 3.407-1.604 6.436-4.097 8.39l12.262 15.61c7.138-5.588 11.738-14.25 11.738-24h-19.903z" fill="#C5CFD6"/><g><path d="M587.716 44.669a8.095 8.095 0 0 1-5.901 2.546c-4.475 0-8.103-3.604-8.103-8.05 0-4.446 3.628-8.05 8.103-8.05v-14.95c-12.73 0-23.15 10.352-23.15 23 0 12.647 10.42 23 23.15 23 6.687 0 12.73-2.81 16.85-7.282l-10.949-10.214z" fill="#F2F2F2"/><path d="M581.665 16.165v14.95a8.05 8.05 0 0 1 8.05 8.05h14.95c0-12.648-10.352-23-23-23z" fill="#AFB9C5"/><path d="M589.738 39.165a7.98 7.98 0 0 1-3.073 6.293l9.196 11.707c5.353-4.191 8.804-10.688 8.804-18h-14.927z" fill="#C5CFD6"/></g><g transform="translate(80.71 10.576)"><path d="M48.007 51.986l-.014.032c.006-.01.014-.05.014-.032" fill="#C5CFD6"/><path d="M47.998 52.001l-.002.01c0-.01.018-.04.002-.01" fill="#C5CFD6"/><path d="M48.067 51.832c-.014.04-.032.078-.048.118l.024-.056c-.208.52-.076.182.024-.062" fill="#C5CFD6"/><path d="M48.022 51.953l-.024.056c-.058.112.024-.056.024-.056M48 52.001v-.002zM47.999 52.002l.002-.004-.002.004M47.99 52.016c-.012.024.056-.092 0 0" fill="#C5CFD6"/><path d="M47.998 52.002l.004-.004c-.002.002-.002.004-.004.004" fill="#C5CFD6"/><rect fill="#DDE3E9" width="95" height="63" rx="4"/><path fill="#AFB9C5" d="M36 18L8 63h56z"/><path fill="#C5CFD6" d="M63.5 30L39 63h49z"/><circle fill="#FFF" cx="74" cy="21" r="9"/></g><g transform="matrix(-1 0 0 1 803.184 481.341)"><path d="M71.007 76.986l-.014.032c.006-.01.014-.05.014-.032" fill="#C5CFD6"/><path d="M70.998 77.001l-.002.01c0-.01.018-.04.002-.01" fill="#C5CFD6"/><path d="M71.067 76.832c-.014.04-.032.078-.048.118l.024-.056c-.208.52-.076.182.024-.062" fill="#C5CFD6"/><path d="M71.022 76.953l-.024.056c-.058.112.024-.056.024-.056M71 77.001v-.002zM70.999 77.002l.002-.004-.002.004M70.99 77.016c-.012.024.056-.092 0 0" fill="#C5CFD6"/><path d="M70.998 77.002l.004-.004c-.002.002-.002.004-.004.004" fill="#C5CFD6"/><rect fill="#DDE3E9" width="142" height="94" rx="4"/><path fill="#AFB9C5" d="M52.726 27L11.67 94h82.11z"/><path fill="#C5CFD6" d="M95.056 44.946L58.76 94h72.59z"/><circle fill="#FFF" cx="110.5" cy="31.5" r="13.5"/></g><g><path d="M237.172 372.676c-5.184-6.084-8.693-13.542-8.106-21.897 1.689-24.076 35.203-18.78 41.722-6.628 6.52 12.15 5.744 42.974-2.681 45.145-3.36.866-10.518-1.255-17.803-5.646l4.573 32.35h-27l9.295-43.324z" fill="#B28B67"/><path d="M217.294 342.764c-.872-.864-1.348-2.097-1.759-3.269-.427-1.216-.843-2.446-1.126-3.712-.567-2.53-.573-5.44 1.233-7.405 1.447-1.576 3.62-2.282 5.624-2.436a10.336 10.336 0 0 1 3.988.505c1.27.418 2.365 1.25 3.597 1.767.047-2.727.514-5.58 1.897-7.909 1.332-2.24 3.454-3.497 5.871-3.83 2.48-.34 4.93.24 7.152 1.44.556.301 1.107.617 1.634.973.441.299.9.659 1.418.78.577.136.864-.198 1.239-.62.44-.493.936-.928 1.46-1.314 2.32-1.705 5.363-2.406 8.05-1.384 1.238.471 2.442 1.27 3.282 2.373.749.982 1.283 2.54 2.316 3.224.439.29.749-.094 1.148-.379.6-.427 1.172-.899 1.779-1.314.852-.585 1.775-1.021 2.764-1.25 1.447-.335 3.447-.256 3.86 1.639.156.712.037 1.473-.013 2.19-.07.986-.141 1.97-.227 2.954a21.323 21.323 0 0 1-.287 2.201c-.076.391-.31 1.12-.143 1.511.21.49 1.176.212 1.59.229.815.033 1.634.176 2.389.525.584.27 1.199.668 1.446 1.338.151.411.111.834.04 1.258-.086.508.012.777.076 1.29 1.096-.54 4.893-1.738 5.37.225.16.654-.202 1.393-.479 1.945-.484.967-1.12 1.85-1.77 2.694-1.355 1.759-2.973 3.276-4.713 4.573 2.04.907 2.572 3.58.806 5.174-.78.704-1.828.86-2.811.815-.36-.016-.88-.155-1.162-.092-.153.034-.316.163-.527.177-1.388.095-2.955-.239-4.311-.547-2.418-.549-4.706-1.694-6.575-3.438-.48-.448-.876-.705-1.521-.699-.566.006-1.12.161-1.685.175-1.495.038-2.843-.692-4.23-1.179-.086 1.875-.62 3.94-1.387 5.628-.626 1.375-1.932 1.575-3.215 1.696-4.105.386-8.224-.045-12.334-.039 3.979.9 8.09 1.27 12.033 2.328 1.782.478.421 1.68-.341 2.512-1.255 1.372-2.188 3.07-2.835 4.86-1.946-2.536-5.386-4.208-8.434-3.428-3.367.86-5.738 5.414-3.585 8.688 1.25 1.9 3.507 2.634 5.386 3.45-1.465 1.524-1.82 3.775-2.702 5.67-.435.935-1.046 1.992-2.018 2.317-.36.12-.782.131-1.066.425-.352.363-.436.769-.885 1.081-1.792 1.246-4.592 1.15-6.181-.476-1.437-1.47-1.063-3.798.137-5.289-1.91-.796-5.39-1.82-4.63-4.796-4.14-.275-14.188-6.987-8.633-11.892-3.049-1.723-5.85-5.934-3.892-9.645 1.508-2.858 5.015-4.136 7.892-4.288" fill="#191847"/><path fill="#C5CFD6" d="M188.184 557.607h86.911l11.388 140H157.108z"/><path fill-opacity=".1" fill="#000" d="M188.184 557.607h26.73l15.999 140h-73.805z"/><path d="M373.768 533.696c9.252-5.566 24.776 1.586 24.765 9.547-.032 23.822-21.729 136.09-22.861 143.188-1.133 7.097-13.269 8.971-13.976.023-1.124-14.239-3.213-63.53-1.123-86.344a1193.72 1193.72 0 0 1 2.707-26.388c-11.385 20.6-28.993 50.095-52.824 88.484l-12.937-5.922c10.16-33.536 18.49-57.212 24.991-71.027 11.132-23.655 21.57-43.912 25.963-51.048 6.91-11.224 18.939-7.307 25.295-.513z" fill="#B28B67"/><path d="M298.444 637.66l44.403-105.392c10.637-17.144 40.46 3.49 36.833 13.433-8.235 22.575-50.12 95.66-52.573 102.387l-28.663-10.428z" fill="#1F28CF"/><path d="M296.22 649.485c-2.902 2.36-4.782 4.282-5.638 5.764-1.014 1.757-2.2 4.491-3.557 8.201l55.25 31.9c4.162-3.892 4.805-6.92 1.929-9.082a355.162 355.162 0 0 1-7.12-5.47l-19.188-26.324a1 1 0 0 0-1.417-.205l-4.056 3.11c-3.631-.324-6.342-1.003-8.132-2.036-1.496-.864-3.22-2.683-5.174-5.458a2 2 0 0 0-2.897-.4zM358.978 680.459c-1.333 3.495-2 6.098-2 7.81 0 2.03.34 4.99 1.02 8.882h63.798c1.658-5.451.7-8.394-2.871-8.829-3.572-.435-6.54-.827-8.902-1.177l-29.78-13.204a1 1 0 0 0-1.328.531l-1.957 4.722c-3.307 1.535-5.994 2.302-8.062 2.302-1.726 0-4.13-.713-7.209-2.139a2 2 0 0 0-2.709 1.102z" fill="#E4E4E4"/><path d="M401.645 551.341c0 29.902-14.172 99.65-14.181 106.235l-30.494.023c4.463-62.236 6.046-93.69 4.748-94.36-1.947-1.006-79.814 7.79-103.167 7.79-33.676 0-47.607-21.278-48.738-60.694h66.711c13.583 1.456 84.433 15.774 110.745 20.696 11.264 2.108 14.376 12.073 14.376 20.31z" fill="#2B44FF"/><g><path d="M231.447 393.746c.262-.853.529-1.71.8-2.568l.998.47c.156-.161.313-.318.472-.47l31.489 4.86c0 17.677 14.09 34.216 23.003 48.446 13.856 22.121 38.51 46.64 22.703 79.503-14.244 29.612-51.345 34.42-111.305 14.427 0-15.95 13.132-31.983 13.55-51.377.4-18.461 3.857-74.396 18.29-93.29z" fill="#C1DEE2"/><path d="M270.563 515.591c2.105-10.848 3.472-18.09 4.098-21.727 16.776 18.923 26.467 28.495 29.075 28.714 4.903.413 8.526-3.927 9.558-2.707 1.705 5.053-3.111 17.703-12.317 19.542-4.396.879-11.198-8.17-14.001-11.377-1.103-1.26-6.574-5.41-16.413-12.445zm28.978-57.84c4.348 0 6.684 1.795 9.256 5.416 2.57 3.62 5.004 20.697.876 20.697-4.129 0-21.425-6.6-21.425-11.039 0-4.438 11.802-6.317 11.802-9.658 0-3.34-4.858-5.415-.51-5.415z" fill="#B28B67"/><path d="M261.783 532.1l-.79 2.821c-49.27-34.374-49.294-76.03-34.64-122.722-11.045 45.967-6.546 84.735 35.43 119.9z" fill-opacity=".2" fill="#000"/></g><g><path d="M579.955 301.676c5.184-6.084 8.692-13.542 8.106-21.897-1.69-24.076-35.203-18.78-41.722-6.628-6.52 12.15-5.745 42.974 2.68 45.145 3.36.866 10.519-1.255 17.804-5.646L562.25 345h27l-9.295-43.324z" fill="#B28B67"/><path d="M561.728 259.146c3.559-.584 13.14-.985 14.907-.985 1.13 0 2.353.258 3.022-.778.547-.85.347-2.285.51-3.27.19-1.145.46-2.275.732-3.402.776-3.207 1.95-6.258 3.591-9.122 3.08-5.374 7.594-9.584 13.291-12.033 6.292-2.705 13.411-3.324 20.178-2.776 7.242.587 13.798 2.978 20.636 5.228 6.516 2.144 13.34 2.987 20.155 1.94 6.867-1.054 12.055-4.776 17.846-8.308 5.93-3.616 12.705-5.981 19.714-5.437 6.543.507 12.573 3.209 17.983 6.818 5.062 3.376 9.239 7.439 11.597 13.156 2.537 6.15 2.534 12.901-1.637 18.337-6.047 7.878-17.272 9.916-26.61 9.713a50.842 50.842 0 0 1-15.807-2.896c-6.801-2.393-12.679-6.447-19.041-9.737-2.986-1.544-6.073-2.812-9.308-3.725-3.14-.886-6.232-1.293-9.074.603-3.007 2.007-5.702 3.978-9.142 5.234-3.3 1.204-6.795 1.878-10.311 1.851-6.841-.053-13.584-2.184-20.228-3.612-5.418-1.164-11.215-2.324-16.739-1.205-2.305.467-5.671 1.431-6.504 3.826 14.011 2.54 19.514 19.868 15.564 32.588-2.132 6.866-14.947 14.892-19.93 11.283-3.156-2.287-1.24-5.29 0-7.27 2.376-3.796 3.189-8.67-1.206-11.313-3.791-2.279-7.777 3.133-7.853 3.127-1.041-.082-10.044-5.174-16.247-12.604-6.12.363-7.048-3.672-5.587-6.972 1.461-3.3 10.581-7.452 15.498-8.26z" fill="#191847"/></g><g><path fill="#997659" d="M607.213 440l-42.272 138.467-20.477 117.756h-16.056L550.046 440z"/><path d="M622.336 440c-2.871 76.026.508 115.24 1.15 122.148.643 6.907 9.442 51.694 30.274 136.394l-17.109-5.887c-32.922-77.682-44.14-118.055-47.917-128.256-3.776-10.2-13.805-51.667-30.086-124.399h63.688z" fill="#B28B67"/><path d="M653.509 692.287c1.333 3.495 2 6.099 2 7.811 0 2.029-.34 4.989-1.02 8.881h-63.798c-1.658-5.451-.701-8.394 2.87-8.829 3.573-.434 6.54-.827 8.903-1.177l29.779-13.204a1 1 0 0 1 1.329.532l1.957 4.722c3.307 1.534 5.994 2.301 8.061 2.301 1.727 0 4.13-.713 7.21-2.139a2 2 0 0 1 2.709 1.102zM547.915 692.287c1.334 3.495 2 6.099 2 7.811 0 2.029-.34 4.989-1.019 8.881h-63.799c-1.658-5.451-.7-8.394 2.871-8.829 3.572-.434 6.54-.827 8.902-1.177l29.78-13.204a1 1 0 0 1 1.329.532l1.957 4.722c3.307 1.534 5.994 2.301 8.061 2.301 1.727 0 4.13-.713 7.21-2.139a2 2 0 0 1 2.708 1.102z" fill="#E4E4E4"/><path fill="#69A1AC" d="M612.83 440l-17.973 70.547h-54.898L548.144 440z"/><path d="M622.94 440c5.914 17.761 7.037 41.277 3.37 70.547h-56.021L554.884 440h68.056z" fill="#89C5CC"/></g><g><path d="M501.19 436.037l-27.24 35.168c-8.632 5.2-15.55 10.575-20.75 16.124-1.096 1.773-2.104 5.018 3.91 2.784s12.44-4.313 13.89-2.463c1.45 1.85-1.553 5.42.973 7.754 1.684 1.556 5.731-4.714 12.141-18.81l30.103-23.925-13.027-16.632zm150.414-49.502l-24.382 3.52c27.025 57.478 41.309 87.554 42.853 90.227 3.474 6.015-.616 16.494-2.215 22.041 8.075 2.326 5.499-10.129 15.709-7.025 9.32 2.834 17.008 9.26 26.24 1.614 1.136-.94 2.093-4.013-1.514-5.803-8.985-4.458-22.178-12.618-24.228-15.625-2.796-4.102-13.617-33.752-32.463-88.949z" fill="#B28B67"/><path d="M567.56 327.904l-9.865-.296c-7.65 55.681-80.491 103.14-82.464 123.83-.724 7.588 5.09 10.555 2.67 13.175l13.808 7.39c1.773-2.768 6.933 1.114 15.938-3.374 9.006-4.488 68.824-77.32 59.913-140.725z" fill="#DB2721"/><path d="M552.354 337.29c11.08 70.745-27.438 94.6-14.296 121.756 10.852 22.423 86.682 37.511 95.954 12.732 3.753-10.03 4.467-21.623 3.005-33.912 4.52 8.964 8.187 16.713 11.002 23.246 4.856 11.27 17.556 11.385 18.19 15.9l15.753-6.818c-1.974-5.978 5.332-10.051 1.334-23.465-17.91-60.1-49.102-101.107-93.575-123.019l-1.366-6.416a4 4 0 0 0-4.744-3.08v-.002l-30.69 6.519a4 4 0 0 0-3.081 4.743v.001l2.514 11.815z" fill="#FF4133"/></g></g></g></svg>