<svg xmlns="http://www.w3.org/2000/svg" width="817.1" height="816.9"><style>.st0{fill:#d5e0ea}.st1{fill:#1f0d60}.st2{fill:#fff}.st4{fill:#ffc800}.st5{fill:#892bff}.st6{fill:#00dc99}.st7{fill:#ad2bff}.st8{fill:#ff0090}.st9{fill:none;stroke:#00dc99;stroke-width:2;stroke-linecap:round;stroke-linejoin:round;stroke-miterlimit:10}</style><g id="background_1_"><g id="background"><path id="semicircle" class="st0" d="M615.5 478C437.7 424.7 259.8 371.4 81.9 318c43.9-146.4 200.4-230.7 346.8-186.8S659.4 331.6 615.5 478z"/><circle id="circle" class="st0" cx="722.1" cy="595.4" r="81.7"/></g></g><g id="general_1_"><g id="general"><g id="table"><path class="st1" d="M263.4 752.8c-.3 0-.5-.2-.5-.5V336.6c0-.3.2-.5.5-.5s.5.2.5.5v415.6c0 .3-.2.6-.5.6zM774.3 749.5c-.3 0-.5-.2-.5-.5V336.6c0-.3.2-.5.5-.5s.5.2.5.5V749c0 .2-.3.5-.5.5z"/><path class="st2" d="M463.3 336.6H211.5v-33c.2 0 .3-.1.5-.1 6.2-.9 12.2-2.5 18-4.8.4-.2.8-.3 1.2-.5h46.9v.5L276 320c3.8.3 7.6.5 11.4.8l55.1 4c-1-5.4-2.1-10.7-3.1-16-.7-3.4-1.3-6.8-2-10.1 0-.2-.1-.3-.1-.5h53.2v.5c0 3.2.1 6.2.1 9 0 3.1 0 6 .1 8.6.1 10 .1 16.4.1 17.4 11.7-.8 23.4-1.6 35.1-2.5 2.2-.2 4.5-.3 6.8-.5-.8-10.7-1.5-21.5-2.2-32.2v-.5h17.2c.1.2.1.3.2.5 5.1 12.5 10.2 24.9 15.3 37.3 0 .5 0 .7.1.8zM816.6 298.3v38.3H514.7c-.1-.2-.1-.3-.2-.5-4.8-12.7-9.6-25.1-14.4-37.3-.1-.2-.1-.3-.2-.5h316.7z"/><path class="st1" d="M447.6 298.3c-.1-.2-.1-.3-.2-.5h-17.1v1h17.4c0-.2 0-.3-.1-.5zm15.7 38.3c-.1-.2-.1-.3-.2-.5H212v-32.5c-.2 0-.3 0-.5.1-.2 0-.3 0-.5.1v32.9c0 .3.2.5.5.5h252c-.1-.2-.1-.4-.2-.6zm-185.2-38.3c0-.2 0-.3.1-.5h-45.7c-.4.2-.8.3-1.2.5-.4.2-.8.3-1.2.5h48.1c-.1-.2-.1-.3-.1-.5zm538.5-.5H499.7c.1.2.1.3.2.5s.1.3.2.5H816v37.3H514.5c.1.2.1.3.2.5s.1.3.2.5h301.7c.3 0 .5-.2.5-.5v-38.3c0-.3-.3-.5-.5-.5zm-426 0h-53.3c0 .2.1.3.1.5s.1.3.1.5h53.1v-.5-.5z"/></g><g id="bin"><path id="bin_1_" d="M184.9 608.1c-1.1 9.5-2.2 19-3.3 28.4-2.6 22-5.1 44.1-7.7 66.1-1.9 16-3.7 32-5.6 48-.7 6-1.4 12.1-2.1 18.1-1.5 13.1-3.1 26.3-4.6 39.4L62 809.6c-1.5-11-3.1-22.1-4.6-33.1l-3.6-26.1-6.3-45.6c-3.3-23.9-6.7-47.8-10-71.7L36 622c-.5-3.3-.9-6.6-1.4-9.9 2.6-.1 6-.2 10.1-.4 6-.2 13.4-.4 21.7-.7 4-.1 8.3-.2 12.7-.4 7-.2 14.4-.4 21.8-.6l12.5-.3c7.5-.2 14.9-.4 22-.6 4.2-.1 8.4-.2 12.3-.3 8.3-.2 15.8-.4 22.3-.5 4.7-.1 8.8-.2 12-.2h2.9z" fill="#ff0f97"/><g id="pattern_1_"><path class="st1" d="M181.6 637c-.2 0-.4-.2-.5-.4l-11.6-28.1c-.1-.3 0-.5.3-.7.3-.1.5 0 .7.3l11.6 28.2v.2c0 .3-.3.5-.5.5zM173.8 703.2c-.2 0-.4-.1-.5-.3l-31.7-77.2v-.1l-6.7-16.3c0-.1-.1-.2-.1-.2 0-.3.2-.5.5-.5.2 0 .4.1.5.3l6.7 16.4v.1l31.7 77.1c.1.3 0 .5-.3.7h-.1zM166.1 769.3c-.2 0-.4-.1-.5-.3l-2.2-5.3-37.4-91.3v-.1l-18.7-45.6v-.1l-6.8-16.6c-.1-.3 0-.5.3-.7.3-.1.5 0 .7.3l6.8 16.6v.1l18.7 45.6v.1l39.7 96.5c.1.3 0 .5-.3.7-.2.1-.2.1-.3.1zM147.5 808.9c-.2 0-.4-.1-.5-.3l-18-43.7v-.1l-18.7-45.6v-.1l-44.4-108c-.1-.3 0-.5.3-.7.3-.1.5 0 .7.3l44.4 108.1v.1l18.7 45.6v.1l18 43.7c.1.3 0 .5-.3.7-.1-.1-.2-.1-.2-.1zM112.8 809.4c-.2 0-.4-.1-.5-.3l-74-180v-.1l-2.9-7c-.1-.3 0-.5.3-.7.3-.1.5 0 .7.3l2.9 7.1v.1l74 179.9c.1.3 0 .5-.3.7h-.2zM78 809.9c-.2 0-.4-.1-.5-.3l-24.3-59.1c-.1-.3 0-.5.3-.7.3-.1.5 0 .7.3l24.3 59.1c.1.3 0 .5-.3.7H78z"/><path class="st1" d="M148.9 808.9h-.2c-.3-.1-.4-.4-.3-.6l19.4-57.7c.1-.2.2-.4.5-.4s.5.2.5.5v.2l-19.4 57.7c-.1.2-.3.3-.5.3zM114.7 809.4h-.2c-.3-.1-.4-.4-.3-.6l14.8-44.2 52.5-156.5c.1-.3.4-.4.6-.3.3.1.4.4.3.6L130 764.8 115.1 809c0 .2-.2.4-.4.4zM80.4 809.8h-.2c-.3-.1-.4-.4-.3-.6l30.3-90.3 15.7-46.7v-.1l15.7-46.7v-.1l5.6-16.7c.1-.3.4-.4.6-.3.3.1.4.4.3.6l-5.6 16.6v.1l-15.7 46.7v.1l-15.7 46.7-30.3 90.3c0 .3-.2.4-.4.4zM57.4 777c-.3 0-.5-.2-.5-.5v-.2l50.2-149.8 5.7-17c.1-.3.4-.4.6-.3.3.1.4.4.3.6l-5.7 16.9-50.1 149.9c-.1.2-.3.4-.5.4zM47.4 705.2h-.2c-.3-.1-.4-.4-.3-.6l31.6-94.1c.1-.3.4-.4.6-.3.3.1.4.4.3.6l-31.6 94.1c0 .2-.2.3-.4.3zM37.4 633.5h-.2c-.3-.1-.4-.4-.3-.6l1.4-4 5.8-17.3c.1-.3.4-.4.6-.3.3.1.4.4.3.6L39.3 629v.1l-1.4 4c-.1.2-.3.4-.5.4z"/></g><path class="st1" d="M34.5 612.5c-.3 0-.5-.2-.5-.5s.2-.5.5-.5l150.4-3.9c.3 0 .5.2.5.5s-.2.5-.5.5l-150.4 3.9z"/></g><g id="star_1_"><path id="star" class="st4" d="M112.4 483.9c-6.7 16.8-13.5 33.5-20.2 50.3-5.2-13.8-10.4-27.6-15.5-41.4-13 7.3-26.1 14.6-39.1 21.9l14.1-44.1c-13.9-5.2-27.8-10.5-41.7-15.7 15.9-6.3 31.9-12.7 47.8-19-2.8-16.7-5.5-33.4-8.3-50.1 11.9 9.2 23.7 18.4 35.6 27.6 10.5-10.5 21-21 31.4-31.5l4.8 42.6c14-1.8 28-3.6 42.1-5.4-9 11.1-18 22.2-26.9 33.2l29.4 37.5c-17.8-2-35.6-3.9-53.5-5.9z"/><path id="bell" class="st2" d="M114.5 463.8c-10.2-6.2-14.9-12.9-17.4-17.8-2.3-4.6-3.3-9.3-7.5-10.8-1.1-.4-2.4-.5-3.7-.4-.6-.9-1.4-1.4-2.2-1.2-.7.2-1.2 1.1-1.2 2.1-1.3.6-2.4 1.4-3.1 2.5-2.6 3.7.2 8.2 1 14.8.7 5.3.2 12.7-4.6 22.2 5.1-1.5 10.3-3 15.4-4.5.9 1.7 3 2.6 4.9 2 1.9-.6 3.2-2.4 3-4.4 5.2-1.5 10.3-3 15.4-4.5z"/></g><g id="computer"><path class="st1" d="M550.2 274.8h80.7v23h-80.7z"/><path class="st2" d="M699.8 118.5v156.6h-209l-.6-1.5c-2.5-6.2-5-12.3-7.4-18.4-.5-1.2-1-2.5-1.5-3.7v-133h218.5z"/><path class="st4" d="M699.8 117H481.3c-.8 0-1.5.7-1.5 1.5v129.4c.5 1.2 1 2.5 1.5 3.7.5 1.2 1 2.5 1.5 3.7V120h215.6v153.6H490.2l.6 1.5.6 1.5h208.4c.8 0 1.5-.7 1.5-1.5V118.5c0-.8-.6-1.5-1.5-1.5z"/><path class="st1" d="M562.5 248.4h-59.4c-.3 0-.5-.2-.5-.5v-84.5c0-.3.2-.5.5-.5h59.4c.3 0 .5.2.5.5v84.5c0 .3-.2.5-.5.5zm-58.9-1H562v-83.5h-58.4v83.5zM636.5 141.1h-91.9c-.3 0-.5-.2-.5-.5s.2-.5.5-.5h91.9c.3 0 .5.2.5.5s-.2.5-.5.5zM676.9 186h-48.2c-.3 0-.5-.2-.5-.5s.2-.5.5-.5h48.2c.3 0 .5.2.5.5s-.3.5-.5.5zM609.8 186H585c-.3 0-.5-.2-.5-.5s.2-.5.5-.5h24.8c.3 0 .5.2.5.5s-.2.5-.5.5zM676.9 199.4h-26.1c-.3 0-.5-.2-.5-.5s.2-.5.5-.5h26.1c.3 0 .5.2.5.5s-.3.5-.5.5zM639.8 199.4h-54.9c-.3 0-.5-.2-.5-.5s.2-.5.5-.5h54.9c.3 0 .5.2.5.5s-.2.5-.5.5zM676.9 212.8h-50.7c-.3 0-.5-.2-.5-.5s.2-.5.5-.5h50.7c.3 0 .5.2.5.5s-.3.5-.5.5zM613.8 212.8h-28.9c-.3 0-.5-.2-.5-.5s.2-.5.5-.5h28.9c.3 0 .5.2.5.5s-.2.5-.5.5zM676.9 226.3h-46c-.3 0-.5-.2-.5-.5s.2-.5.5-.5h46c.3 0 .5.2.5.5s-.3.5-.5.5zM620 226.3h-35.1c-.3 0-.5-.2-.5-.5s.2-.5.5-.5H620c.3 0 .5.2.5.5s-.2.5-.5.5z"/></g><g id="woman"><g id="pants_1_"><path id="pants" class="st5" d="M500.8 661.1c-2.3-10-4.5-20-6.8-30-14.7-65.1-29.4-130.2-44-195.3-1-4.5-2-8.9-3-13.4-6.8-30.3-13.7-60.6-20.5-91-11.7.8-23.4 1.6-35.1 2.5 0-1 0-7.4-.1-17.4 0-2.6 0-5.5-.1-8.6-17.1.3-34.2.7-51.2 1 1 5.2 2 10.6 3.1 16l-55.1-4c-1.1 6.9-2.2 13.8-3.2 20.6-1.2 7.7-2.4 15.3-3.6 23-7.1 45.4-14.2 90.7-21.3 136.1-.9 5.6-1.8 11.3-2.7 16.9-6.9 43.9-13.8 87.8-20.7 131.6-1 6.2-1.9 12.4-2.9 18.6-2.2 13.7-4.3 27.4-6.4 41 9.3-.2 18.5-.5 27.8-.7 20.3-.5 40.6-1.1 60.9-1.6 4.6-.1 9.3-.2 14-.4 5.9-43.9 11.8-87.7 17.8-131.6 1-7.6 2-15.2 3.1-22.8l18.6-137.4c7 52 14.1 103.9 21.1 155.9.6 4.7 1.3 9.4 1.9 14.1 5.4 40 10.8 79.9 16.2 119.8 5-.4 10-.9 15-1.3 19.3-1.7 38.7-3.4 58-5.1 9-.8 18.1-1.6 27.1-2.4-2.8-11.2-5.4-22.6-7.9-34.1z"/><g id="pattern"><path class="st6" d="M320.4 377.4c-14.9 2.7-29.6-2.6-39.4-12.9 1.2-7.7 2.4-15.3 3.6-23 7.3 15.4 20.5 25.1 33.4 22.7 13.3-2.4 22.5-17 23.3-34.9 4.7-.9 9.4-1.7 14.2-2.6 4.3 23.5-11.5 46.4-35.1 50.7zM450 435.8c-22.2 2.2-43.1-13.2-47.2-35.5 4.7-.9 9.4-1.7 14.2-2.6 6.4 14.7 18.1 24.7 30 24.8.9 4.4 1.9 8.8 3 13.3zM349 548.5l1.5 3.3c-1 7.6-2 15.2-3.1 22.8-6.4-6.1-10.9-14.2-12.6-23.4 4.7-.9 9.5-1.8 14.2-2.7zM392.1 584.4c-.6-4.7-1.3-9.4-1.9-14.1 9.4-5.5 15.5-17.8 16.2-32.3 4.7-.9 9.4-1.7 14.2-2.6 3.8 21.3-8.7 42-28.5 49zM500.8 661.1c-6.4 9.2-16.2 16-28 18.1-23.5 4.3-46.4-11.5-50.7-35.1 4.7-.9 9.4-1.7 14.2-2.6 7.1 16.4 20.8 26.9 34.1 24.4 13.3-2.4 22.5-17 23.3-34.9.1 0 .2 0 .3-.1 2.2 10.2 4.5 20.2 6.8 30.2zM277.2 686c-17.3 3.2-34.3-4.6-43.7-18.2 1-6.2 1.9-12.4 2.9-18.6 1.4-.3 2.9-.5 4.3-.8 7.1 16.4 20.8 26.9 34.1 24.4s22.5-17 23.3-34.9c4.7-.9 9.4-1.7 14.2-2.6 4.3 23.5-11.6 46.4-35.1 50.7zM257.1 517.5c.9-5.6 1.8-11.3 2.7-16.9 7.4-6.2 12.1-17.2 12.7-29.8 4.7-.9 9.4-1.7 14.2-2.6 3.9 21.6-9.2 42.7-29.6 49.3z"/></g></g><g id="hands"><g id="hand_l"><path class="st4" d="M126.4 271.5c0 3-2.5 5.5-5.5 5.5s-5.5-2.5-5.5-5.5v-23.3l-30.9 16.1c-2.7 1.4-6 .3-7.4-2.3-.8-1.6-.8-3.4-.1-4.9l-2.1 1.1c-.8.4-1.7.6-2.5.6-2 0-3.9-1.1-4.9-2.9-1.4-2.7-.4-6 2.3-7.4-1.3-.5-2.4-1.5-3-2.9-1.2-2.8 0-6 2.8-7.3l18.1-8.1-13.1 1.9c-.3 0-.5.1-.8.1-2.7 0-5-2-5.5-4.7-.4-3 1.7-5.8 4.7-6.2 0 0 43-6.4 44.7-6.5h.8c13.6-.2 23.7 8 24.8 9-2.9 6.5-5.8 13.3-8.7 20.3-3.1 7.7-6 15.3-8.7 22.6.2 1.5.4 3.1.5 4.8z"/><path d="M77.1 257.5c-.2 0-.4-.1-.4-.3-.1-.2 0-.5.2-.7l27.8-14.7c.2-.1.5 0 .7.2.1.2 0 .5-.2.7l-27.8 14.7c-.1.1-.2.1-.3.1zM69 249c-.2 0-.4-.1-.5-.3-.1-.2 0-.5.2-.7l29.6-14c.2-.1.5 0 .7.2s0 .5-.2.7l-29.6 14c-.1.1-.1.1-.2.1z"/></g><g id="hand_r"><path class="st4" d="M529.9 381.1c-1.1.6-2.4.7-3.5.4l.6 1.2c1.3 2.7.3 6-2.3 7.4-1.7.9-3.7.7-5.2-.3l.4.8c1.3 2.7.3 6-2.3 7.4-2.4 1.3-5.3.4-6.7-2-.2 1.8-1.2 3.5-2.8 4.4-2.5 1.4-5.7.3-7-2.4l-12.2-25.6 3.7 13.2c.8 2.9-.8 6-3.5 6.8-2.7.9-5.6-.8-6.5-3.7-3-9.1-6-18.3-9.1-27.4 14-7.5 28-15 41.9-22.5l16.7 34.9c1.3 2.7.3 6-2.2 7.4z"/><path d="M510.8 396.5c-.2 0-.4-.1-.5-.3l-11-26.7c-.1-.3 0-.5.3-.7.3-.1.5 0 .7.3l11 26.7c.1.3 0 .5-.3.7h-.2zM519.4 390.3c-.2 0-.4-.1-.5-.3l-10.8-24.8c-.1-.3 0-.5.3-.7.3-.1.5 0 .7.3l10.8 24.8c.1.3 0 .5-.3.7h-.2zM526.3 382.1c-.2 0-.4-.1-.5-.3l-9.4-20.2c-.1-.2 0-.5.2-.7.2-.1.5 0 .7.2l9.4 20.2c.1.2 0 .5-.2.7 0 0-.1.1-.2.1z"/></g></g><g id="shoes"><path class="st1" d="M554.6 761.1c0-.2-.1-.3-.1-.5s-.1-.3-.1-.5c-1-4.7-2.9-9.5-6.4-13.6-9.5-11.1-23.3-8.3-37.9-15.2-9.1-4.3-20.3-13.2-29.3-33.5-19.3 1.7-38.7 3.4-58 5.1-.8 15.9-1.5 31.9-2.3 47.8v1c-.2 3.3-.3 6.6-.5 9.8 5.7.5 11.4 1 17.2 1.6.7-3.2 1.5-6.7 2.5-10.1 0-.2.1-.3.1-.5s.1-.3.1-.5c2.4-7.9 5.6-14.7 9.6-14.2 3.9.5 7.9 7.8 11.1 15.6.1.2.1.3.2.5s.1.3.2.5c1.5 3.9 2.9 7.8 3.9 11.1 30.1 2.8 60.1 5.5 90.2 8.3.4-3.6.4-8.1-.5-12.7zm-174.9 13.4c0-.3 0-.7-.1-1-.4-5.1-1.7-10.4-4.9-15.2-8.2-12.1-22.2-11-35.8-19.5-8-5-17.2-14.1-23.8-32.3-20.3.5-40.6 1.1-60.9 1.6-2.1 12.9-4.2 25.7-6.4 38.6 0 .3-.1.7-.2 1l-1.8 10.8c5.6 1.2 11.2 2.4 16.9 3.5 1.1-3.3 2.5-7 4-10.5.1-.3.3-.6.4-.9 3.2-7.2 7.1-13.2 10.9-12.2 3.8 1 6.8 8.3 9 16.3.1.3.2.7.3 1 1.1 4.2 2 8.5 2.7 12 29.5 6.2 59.1 12.4 88.6 18.7.8-3.4 1.3-7.6 1.1-11.9z"/><path class="st7" d="M379.7 774.5h-.1l-92.4-18.8c-.3-.1-.4-.3-.4-.6.1-.3.3-.4.6-.4l92.4 18.8c.3.1.4.3.4.6-.1.2-.3.4-.5.4zM267 751.6h-.1l-19.2-3.9c-.3-.1-.4-.3-.4-.6.1-.3.3-.4.6-.4l19.2 3.9c.3.1.4.3.4.6 0 .2-.3.4-.5.4zM554.6 761.1l-93.6-6.5c-.3 0-.5-.3-.5-.5 0-.3.3-.5.5-.5l93.6 6.5c.3 0 .5.2.5.5-.1.3-.3.5-.5.5zM439.9 753.1l-19.3-1.4c-.3 0-.5-.3-.5-.5 0-.3.3-.5.5-.5l19.3 1.4c.3 0 .5.3.5.5 0 .3-.2.5-.5.5z"/></g><g id="head"><path id="hair" d="M440.5 141c-2.8-7-8.6-10.8-11.6-12.4 2-1.2 5.1-3.5 7.6-7.4 5.6-8.6 3.6-17.9 3-20.2-2.1-8.4-7.8-13.1-10.4-15.3-7.1-5.8-14.7-7-17.8-7.3 8.4-12.6 8.3-28.7 0-40-10.1-13.7-27.1-13.6-28.7-13.6-.3-2.7-1.9-12.3-9.9-18.5-9.7-7.5-24.9-7.1-37 1.9-1.4-1.8-4-4.8-8.3-6.6-6.5-2.8-12.5-1.1-16-.2-2.8.8-12.7 4.4-18.7 13.6-6.5 10-4.6 20.6-4.6 20.6S261.4 24.9 255 57.3c-6.4 32.4 16.8 35.2 16.8 35.2s-35.8 5.8-36.5 29.9c-.8 24.1 19.6 31.1 19.6 31.1s-21.2 15.1-5 31.7c8.8-20.7 21-41.7 44.8-55.3 3.8-2.2 7.1-3.7 9.2-4.6.5 2.4 4.4 22.5 9.9 50.7 2.1-1.5 3.3-2.5 3.3-2.5s-3 20.2 28.9 16.6c31.5-3.6 22.3-37.3 22.1-38.2 6.5 8.1 13.8 14.2 21.1 18.6-.4-20.4-.7-37.4-1.1-46.9 0-.6 0-1.2-.1-1.8 5.9 2 11.5 4.4 16.8 7.2 15.3 8.3 26.5 19.8 35 32.2 2.4-6.4 3.4-13.6.7-20.2z"/><path id="face" class="st4" d="M381.9 55.2c-.2-1.3-.6-3.5-1.3-6.2-.5-1.7-1-3.6-1.8-5.7-.6-1.6-1.3-3.2-2.1-4.9-5.2.2-13.2-.4-21-5.1-7.1-4.2-11-9.8-12.9-13-.1 4.3-.8 13.4-5 24-3.1 7.8-8.1 16.4-16.1 24.7-1.9 2-4 3.9-6.3 5.8-.3.2-.5.4-.8.7-1 .8-2 1.6-3.1 2.4 1.3 2.9 3 5.8 4.9 8.5.7 1 1.5 2 2.3 3l.1.9V90.6c.8 4.7 1.5 9.4 2.2 14.1.7 4.6 1.5 9.2 2.2 13.8 0 .2 0 .3.1.5.5.7 1.1 1.3 1.6 2 .2-.2.5-.1.7.1l38 46.6-1.6-46.8c0-.3.2-.5.5-.5 0-1.4-.1-2.8-.2-4.2-.1-2.8-.2-5.6-.3-8.3v-1c.1 0 .2-.1.4-.1.3-.1.6-.2.9-.4 5-2.1 8.8-5.6 11.7-9.9 1.8-2.7 3.2-5.6 4.3-8.8 4-10.7 4.2-23.3 2.6-32.5z"/><path id="nose" d="M367 74.8c-.1 0-.2 0-.3-.1-.2-.2-.2-.5-.1-.7l5.2-6L360 57.3c-.2-.2-.2-.5 0-.7.2-.2.5-.2.7 0l12.2 11c.2.2.2.5 0 .7l-5.5 6.4c-.1 0-.3.1-.4.1z"/><g id="eyes"><path d="M345.8 63.4c-2.2 0-3.9-.8-4.3-1.1-.2-.1-.3-.4-.2-.7.1-.2.4-.3.7-.2.5.3 3.3 1.7 6.4.5 3.4-1.3 4.4-4.6 4.5-4.9.1-.3.4-.4.6-.3.3.1.4.4.3.6-.2.7-1.4 4.1-5.2 5.6-.9.4-1.9.5-2.8.5zM371.9 58c-3.9 0-6.6-3.2-6.6-3.3-.2-.2-.1-.5.1-.7.2-.2.5-.1.7.1.2.2 4.6 5.5 10.2 1.3.2-.2.5-.1.7.1.2.2.1.5-.1.7-1.8 1.4-3.5 1.8-5 1.8z"/></g><g id="brows"><ellipse transform="rotate(-22.089 342.705 49.612)" cx="342.7" cy="49.6" rx="6.4" ry="1.9"/><ellipse transform="rotate(-87.226 369.455 43.402) scale(.99997)" cx="369.5" cy="43.4" rx="1.9" ry="6.4"/></g><path d="M362.2 86.8c-9 0-10.7-6.9-10.7-6.9-.1-.3.1-.5.4-.6.3-.1.5.1.6.4.1.3 1.7 6.7 10.7 6.1.3 0 .5.2.5.5s-.2.5-.5.5h-1zM355.8 108.7c-.8 0-1.5 0-2.3-.1-6.3-.6-11-3.2-13.8-5.4-.2-.2-.3-.5-.1-.7.2-.2.5-.3.7-.1 2.7 2.1 7.2 4.6 13.3 5.2 3.7.3 7.6-.2 11.1-1.5.3-.1.5 0 .6.3.1.3 0 .5-.3.6-2.9 1.1-6.1 1.7-9.2 1.7z"/><path id="bezel" class="st8" d="M309.4 69.9c-.6 0-1.2-.4-1.4-.9-6.1-15-2.9-31.8 8.1-42.8 15.4-15.3 37.3-9.7 38.3-9.5 6.8 1.8 13.1 5.5 18.3 10.6.6.6.6 1.5 0 2.1-.6.6-1.5.6-2.1 0-4.8-4.8-10.7-8.2-16.9-9.8-.9-.2-21.2-5.4-35.4 8.7-10.1 10.1-13 25.6-7.4 39.5.3.8-.1 1.6-.8 2-.3 0-.5.1-.7.1z"/><g id="ear"><circle class="st4" cx="312.7" cy="78.8" r="13.2"/><path d="M318.5 84.2h-.2c-1.7-.6-2.7-1.5-2.9-2.7-.3-1.6 1-3.2 1.7-3.9l-8.5-6.8c-.2-.2-.3-.5-.1-.7.2-.2.5-.3.7-.1l8.9 7.1c.1.1.2.2.2.4 0 .1-.1.3-.2.4-.6.5-2 2.1-1.8 3.4.1.8.9 1.5 2.3 1.9.3.1.4.4.3.6 0 .3-.2.4-.4.4z"/></g><g id="earrings"><path class="st5" d="M384.8 95.8c-3.2.3-6.4.5-9.6.8 1.8-2.7 3.2-5.6 4.3-8.8 1.8 2.6 5.3 8 5.3 8zM318.8 90.7c.5-.4.8-1 .8-1.7.1-1.4-1-2.5-2.4-2.6s-2.5 1-2.6 2.4c0 .9.4 1.7 1.1 2.1-2.3 4.8-6.6 14.6-6.6 14.6s18.9-.8 18.4-1.2c-.2-.3-5.9-9.2-8.7-13.6z"/></g></g><g id="blouse_1_"><path id="blouse" class="st8" d="M390.6 303.9v-3.6c-.1-8.7-.2-18.6-.3-29.3v-4.1c-.1-9.4-.2-19.3-.3-29.4 0-1.5 0-3-.1-4.5-.1-11-.3-22.1-.4-32.9 0-1.6 0-3.2-.1-4.8-.1-9.9-.3-19.5-.4-28.3 0-1.7-.1-3.3-.1-4.9-.2-11.2-.4-21.1-.7-28.9-.1-1.6-.1-3.2-.1-4.6-.1-2-.1-3.7-.2-5.3 0-.6 0-1.2-.1-1.8-8.1-2.7-16.6-4.5-25.4-5.3.1 1.4.1 2.8.2 4.2-.3 0-.5.2-.5.5l1.6 46.8-38-46.6c-.2-.2-.5-.2-.7-.1-.5-.6-1.1-1.3-1.6-2 0-.2-.1-.3-.1-.5-2.5.6-5 1.2-7.4 2-3.3 1-6.5 2.1-9.7 3.4-.8.3-1.6.7-2.4 1.1 5.2 26.7 15.1 77.9 23.9 123.1.3 1.5.6 2.9.8 4.3 3.4 17.6 6.6 34.2 9.3 47.8.2.8.3 1.6.5 2.4l.3 1.5.6 3c.6 3.1 1.2 6 1.7 8.7l27.5.3c7.5.1 14.9.1 22.4.2-.1-3.5-.1-7.8-.2-12.4z"/><g id="dots_pattern"><circle class="st1" cx="315.2" cy="130.9" r="2.4"/><path class="st1" d="M367 130.9c0 1.3-1.1 2.4-2.4 2.4-.4 0-.8-.1-1.1-.2-.2-.1-.3-4.2-.1-4.3.4-.2.8-.3 1.2-.3 1.3 0 2.4 1 2.4 2.4zM388.3 133.2c-1-.3-1.7-1.2-1.7-2.3 0-1 .6-1.9 1.6-2.3 0 1.5 0 3 .1 4.6z"/><circle class="st1" cx="327.1" cy="146.3" r="2.4"/><circle class="st1" cx="376.5" cy="146.3" r="2.4"/><circle class="st1" cx="315.2" cy="164.6" r="2.4"/><circle class="st1" cx="339.6" cy="164.6" r="2.4"/><path class="st1" d="M367 164.6c0 1.3-1 2.4-2.3 2.4h-.5c-.2 0-.3-4.8-.2-4.8.2 0 .3-.1.5-.1h.1c1.3 0 2.4 1.1 2.4 2.5zM389 167c-1.4 0-2.4-1.1-2.4-2.4 0-1.3 1-2.4 2.4-2.4-.1 1.5 0 3.2 0 4.8z"/><circle class="st1" cx="327.7" cy="182.4" r="2.4"/><circle class="st1" cx="352.1" cy="182.4" r="2.4"/><circle class="st1" cx="377.1" cy="182.4" r="2.4"/><circle class="st1" cx="339.6" cy="197.8" r="2.4"/><circle class="st1" cx="364.6" cy="197.8" r="2.4"/><path class="st1" d="M389.5 200.1c-.2 0-.3.1-.5.1-1.3 0-2.4-1.1-2.4-2.4 0-1.3 1.1-2.4 2.4-2.4h.5v4.7z"/><circle class="st1" cx="327.7" cy="216.1" r="2.4"/><circle class="st1" cx="352.1" cy="216.1" r="2.4"/><circle class="st1" cx="377.1" cy="216.1" r="2.4"/><circle class="st1" cx="339.6" cy="235.3" r="2.4"/><circle class="st1" cx="364.6" cy="235.3" r="2.4"/><path class="st1" d="M390 237.5c-.3.1-.7.2-1 .2-1.3 0-2.4-1.1-2.4-2.4 0-1.3 1.1-2.4 2.4-2.4.3 0 .7.1 1 .2v4.4zM329.5 250.6c0 .8-.4 1.5-1 2-.3-1.4-.6-2.9-.8-4.3 1 .2 1.8 1.2 1.8 2.3z"/><circle class="st1" cx="352.1" cy="250.6" r="2.4"/><circle class="st1" cx="376.5" cy="250.6" r="2.4"/><circle class="st1" cx="339.6" cy="268.9" r="2.4"/><circle class="st1" cx="364.6" cy="268.9" r="2.4"/><path class="st1" d="M390.3 271c-.4.3-.9.4-1.4.4-1.3 0-2.4-1.1-2.4-2.4s1.1-2.4 2.4-2.4c.5 0 .9.1 1.3.4.1 1.3.1 2.6.1 4z"/><circle class="st1" cx="352.1" cy="286.7" r="2.4"/><circle class="st1" cx="377.1" cy="286.7" r="2.4"/><circle class="st1" cx="364.6" cy="302.1" r="2.4"/><path class="st1" d="M342 304.9c0 1.4-1.1 2.4-2.4 2.4h-.5l-.6-3-.3-1.5c.4-.2.8-.4 1.3-.4 1.4.1 2.5 1.2 2.5 2.5zM390.6 303.9c-.4.4-1 .6-1.7.6-1.3 0-2.4-1.1-2.4-2.4 0-1.3 1.1-2.4 2.4-2.4.6 0 1.2.2 1.6.6.1 1.2.1 2.4.1 3.6z"/></g><path class="st1" d="M364.8 169.3c0 .2-.1.4-.3.5h-.2c-.1 0-.3-.1-.4-.2l-39-47.8c-.2-.2-.1-.5.1-.7.2-.2.5-.1.7.1l38 46.6v-1l-.2-4.5-1-30.2-.1-2.3-.3-8.8c0-.3.2-.5.5-.5s.5.2.5.5l.3 7.9.1 4.3 1 29 .2 4.9.1 2.2zM390.7 317l-32.6-.3c-.3 0-.5-.2-.5-.5s.2-.5.5-.5l32.6.3c.3 0 .5.2.5.5s-.2.5-.5.5z"/></g><g id="cardigan"><path class="st9" d="M342.5 324.8l-55.1-4c-3.8-.3-7.6-.5-11.4-.8l2.1-21.3v-.5c0-.2 0-.3.1-.5 1.7-17.2 3.3-34.4 5-51.6-10.5 23.7-28.9 42.3-50.8 51.6-.4.2-.8.3-1.2.5-.4.2-.8.3-1.2.5-5.8 2.3-11.8 3.9-18 4.8-.2 0-.3 0-.5.1-.2 0-.3 0-.5.1-1.2.2-2.4.3-3.6.4 0 0-45.2 4.4-81-37.5 2.1-5.8 4.2-11.6 6.4-17.4 3.6-8.5 7.1-17 10.7-25.5l-.1-.1c36.5 28.7 57.1 29.9 69.5 24.7 19.5-8.3 25.1-35.4 36.9-63.2 8.8-20.7 21-41.7 44.8-55.3 3.8-2.2 7.1-3.7 9.2-4.6.5 2.4 4.4 22.5 9.9 50.7 4 20.4 8.8 45.1 13.7 70.5.3 1.4 4.6 23.5 10 51.4 0 .2.1.3.1.5s.1.3.1.5c.6 3.3 1.3 6.7 2 10.1.8 5.2 1.9 10.5 2.9 15.9zM515.5 338.8l-42 22.5s-.1 0-.1.1c-3.3-8.1-6.6-16.1-9.9-24.2-.1-.2-.1-.3-.2-.5s-.1-.3-.2-.5c-5.1-12.5-10.2-24.9-15.3-37.3-.1-.2-.1-.3-.2-.5s-.1-.3-.2-.5c-6.9-16.8-13.7-33.6-20.6-50.3 1.2 16.8 2.3 33.6 3.5 50.3v1c.8 10.7 1.5 21.5 2.2 32.2-2.2.2-4.5.3-6.8.5-11.7.8-23.4 1.6-35.1 2.5 0-1 0-7.4-.1-17.4 0-2.6 0-5.5-.1-8.6 0-2.8 0-5.9-.1-9v-.5-.5c-.3-34.7-.8-87.6-1.5-127.5-.4-20.4-.7-37.4-1.1-46.9 0-.6 0-1.2-.1-1.8 5.9 2 11.5 4.4 16.8 7.2 15.3 8.3 26.5 19.8 35 32.2 9.4 13.6 15.7 28.2 21 40.8 6.4 15.1 12.8 30.5 19.2 46.1.5 1.2 1 2.5 1.5 3.7.5 1.2 1 2.5 1.5 3.7 2.5 6.1 4.9 12.2 7.4 18.4l.6 1.5.6 1.5c2.8 7 5.6 14 8.4 21.2.1.2.1.3.2.5s.1.3.2.5c4.8 12.2 9.6 24.7 14.4 37.3.1.2.1.3.2.5s.1.3.2.5c.3.2.5.7.7 1.3z"/></g></g></g></g></svg>